<?xml version="1.0" standalone="no"?>
<!DOCTYPE svg PUBLIC "-//W3C//DTD SVG 20010904//EN"
 "http://www.w3.org/TR/2001/REC-SVG-20010904/DTD/svg10.dtd">
<svg version="1.0" xmlns="http://www.w3.org/2000/svg"
 width="96.000000pt" height="96.000000pt" viewBox="0 0 96.000000 96.000000"
 preserveAspectRatio="xMidYMid meet">

<g transform="translate(0.000000,96.000000) scale(0.100000,-0.100000)"
fill="#000000" stroke="none">
<path d="M380 867 c-63 -18 -109 -42 -153 -78 -38 -31 -46 -56 -25 -77 19 -19
33 -15 93 27 164 115 387 57 475 -124 20 -41 24 -65 24 -135 0 -100 -24 -160
-89 -225 -63 -64 -125 -89 -220 -89 -89 -1 -126 10 -198 61 -51 36 -66 40 -85
21 -33 -33 9 -80 118 -132 58 -28 75 -31 160 -31 86 0 101 3 162 32 93 44 151
100 196 191 35 72 37 81 37 172 0 91 -2 100 -37 172 -68 136 -188 216 -336
224 -46 2 -95 -1 -122 -9z"/>
<path d="M152 567 c-39 -40 -72 -79 -72 -87 0 -20 141 -160 161 -160 20 0 39
20 39 40 0 9 -14 29 -31 46 l-30 29 192 5 c169 4 193 7 203 22 8 13 8 23 0 35
-10 16 -34 19 -203 23 l-192 5 30 29 c33 32 39 54 19 74 -23 23 -44 12 -116
-61z"/>
</g>
</svg>
