<?xml version="1.0" standalone="no"?>
<!DOCTYPE svg PUBLIC "-//W3C//DTD SVG 20010904//EN"
 "http://www.w3.org/TR/2001/REC-SVG-20010904/DTD/svg10.dtd">
<svg version="1.0" xmlns="http://www.w3.org/2000/svg"
 width="96.000000pt" height="96.000000pt" viewBox="0 0 96.000000 96.000000"
 preserveAspectRatio="xMidYMid meet">

<g transform="translate(0.000000,96.000000) scale(0.100000,-0.100000)"
fill="#000000" stroke="none">
<path d="M154 821 c-52 -32 -55 -51 -52 -354 l3 -277 33 -32 32 -33 135 -3
c126 -3 135 -2 135 15 0 10 7 29 16 41 l15 22 -133 0 c-91 0 -138 4 -146 12
-9 9 -12 74 -12 230 l0 218 300 0 300 0 0 -68 0 -68 40 -11 40 -10 0 124 c0
139 -10 172 -60 198 -24 12 -80 15 -322 15 -269 0 -296 -2 -324 -19z m80 -56
c8 -23 -4 -45 -25 -45 -11 0 -22 7 -25 15 -9 23 3 45 25 45 10 0 21 -7 25 -15z
m100 0 c8 -23 -4 -45 -25 -45 -11 0 -22 7 -25 15 -9 23 3 45 25 45 10 0 21 -7
25 -15z"/>
<path d="M712 460 c-42 -26 -72 -76 -72 -120 0 -31 -10 -46 -80 -115 l-81 -80
3 -50 3 -50 55 0 c52 0 55 1 58 27 3 21 9 27 30 30 21 2 28 9 30 30 3 21 9 27
30 30 19 2 28 10 30 24 3 19 8 21 45 17 79 -8 145 48 154 128 11 108 -112 185
-205 129z m118 -75 c15 -18 10 -45 -12 -59 -35 -22 -74 27 -48 59 16 19 44 19
60 0z"/>
<path d="M250 385 c-15 -18 -10 -45 13 -59 34 -22 73 27 47 59 -16 19 -44 19
-60 0z"/>
<path d="M370 385 c-15 -18 -10 -45 13 -59 34 -22 73 27 47 59 -16 19 -44 19
-60 0z"/>
<path d="M490 385 c-15 -18 -10 -45 13 -59 34 -22 73 27 47 59 -16 19 -44 19
-60 0z"/>
</g>
</svg>
