<?xml version="1.0" standalone="no"?>
<!DOCTYPE svg PUBLIC "-//W3C//DTD SVG 20010904//EN"
 "http://www.w3.org/TR/2001/REC-SVG-20010904/DTD/svg10.dtd">
<svg version="1.0" xmlns="http://www.w3.org/2000/svg"
 width="512.000000pt" height="512.000000pt" viewBox="0 0 512.000000 512.000000"
 preserveAspectRatio="xMidYMid meet">

<g transform="translate(0.000000,512.000000) scale(0.100000,-0.100000)"
fill="#000000" stroke="none">
<path d="M1820 3639 c-303 -26 -679 -104 -767 -158 -83 -51 -120 -189 -74
-278 36 -71 118 -123 195 -123 15 0 77 13 139 30 583 155 1408 137 2034 -45
186 -54 285 -93 468 -185 157 -78 175 -85 230 -85 75 0 142 36 182 97 39 57
44 146 12 212 -28 60 -73 94 -234 174 -392 196 -864 318 -1398 361 -147 13
-646 12 -787 0z"/>
<path d="M2020 2853 c-277 -12 -701 -88 -812 -144 -58 -29 -93 -90 -92 -158 0
-67 20 -110 69 -147 54 -41 110 -42 256 -5 482 121 1010 118 1511 -9 221 -55
368 -111 577 -217 214 -108 244 -114 322 -64 79 49 106 150 64 235 -22 46 -96
96 -260 178 -377 189 -809 299 -1290 328 -163 9 -199 10 -345 3z"/>
<path d="M1930 2089 c-236 -19 -596 -83 -651 -116 -46 -26 -71 -78 -66 -134 5
-60 36 -103 90 -124 42 -16 48 -15 163 9 721 152 1372 84 1878 -195 60 -33
121 -63 136 -66 64 -12 150 48 165 115 10 48 -11 106 -51 141 -48 43 -326 179
-466 229 -352 125 -778 175 -1198 141z"/>
</g>
</svg>
